<?xml version="1.0" encoding="utf-8"?>
<!-- Generator: Adobe Illustrator 16.0.4, SVG Export Plug-In . SVG Version: 6.00 Build 0)  -->
<!DOCTYPE svg PUBLIC "-//W3C//DTD SVG 1.1//EN" "http://www.w3.org/Graphics/SVG/1.1/DTD/svg11.dtd">
<svg version="1.1" id="Layer_1" xmlns="http://www.w3.org/2000/svg" xmlns:xlink="http://www.w3.org/1999/xlink" x="0px" y="0px"
	 width="705.6px" height="295.92px" viewBox="0 0 705.6 295.92" style="enable-background:new 0 0 705.6 295.92;"
	 xml:space="preserve">
<rect style="display:none;" width="705.6" height="295.92"/>
<g>
	<g>
		<path style="fill:#FFFFFF;" d="M79.89,36.81c-3.977,31.175-7.953,62.349-11.924,93.524c-0.18,1.41-0.645,2.608-1.436,3.994
			c-0.632,1.107-2.456,2.862-2.51,3.283c-0.063,0.483,1.26,2.483,1.639,3.528c0.404,1.115,0.6,2.59,0.42,4
			c-3.975,31.175-7.95,62.349-11.924,93.524c-0.39,3.055-1.691,5.603-4.395,7.561c-2.42,1.753-5.266,2.76-8.189,2.583
			c-4.482-0.271-6.723-0.408-11.205-0.688c10.208-73.629,20.416-147.258,30.62-220.888c4.056-0.255,6.084-0.38,10.141-0.626
			c2.646-0.161,4.94,0.745,6.66,2.625C79.599,31.211,80.28,33.755,79.89,36.81z M73.686,37.139c0.153-1.171-0.259-2.315-0.929-2.972
			c-0.573-0.561-1.424-0.848-2.53-0.786c-1.504,0.085-2.256,0.127-3.76,0.213c-4.537,33.573-9.069,67.146-13.605,100.72
			c1.575,0.001,2.364,0.002,3.939,0.004c1.159,0.001,2.123-0.443,2.935-1.167c0.809-0.721,1.603-1.639,1.756-2.81
			C65.552,99.274,69.621,68.207,73.686,37.139z M59.561,145.095c0.153-1.171-0.189-2.11-0.997-3.051
			c-0.605-0.706-1.504-0.944-2.667-0.949c-1.58-0.007-2.37-0.012-3.95-0.02c-4.535,33.574-9.07,67.147-13.605,100.721
			c1.651,0.095,2.477,0.144,4.128,0.238c1.215,0.069,2.219-0.11,3.04-0.772c1.094-0.881,1.701-1.791,1.854-2.962
			C51.427,207.23,55.494,176.163,59.561,145.095z"/>
		<path style="fill:#FFFFFF;" d="M99.789,24.954c6.88-0.375,10.321-0.557,17.202-0.907c-0.302,2.776-0.452,4.164-0.753,6.939
			c-4.336,0.206-6.505,0.311-10.841,0.525c-3.92,34.28-7.838,68.561-11.755,102.841c4.542,0.004,6.813,0.006,11.356,0.01
			c-0.302,2.776-0.454,4.164-0.755,6.939c-4.556-0.018-6.833-0.027-11.39-0.046c-3.921,34.28-7.839,68.561-11.755,102.841
			c4.762,0.238,7.143,0.354,11.905,0.581c-0.302,2.776-0.453,4.164-0.755,6.939c-7.603-0.384-11.404-0.582-19.006-0.994
			C82.094,175.401,90.938,100.177,99.789,24.954z"/>
		<path style="fill:#FFFFFF;" d="M132.431,23.289c6.228,7.223,12.455,14.445,18.687,21.664
			c-6.301,69.51-12.597,139.02-18.898,208.529c-2.828-0.121-4.241-0.183-7.068-0.308c6.402-68.283,12.811-136.564,19.207-204.848
			c-2.868-3.577-4.295-5.359-7.137-8.907c-6.944,71.121-13.897,142.24-20.846,213.36c-2.827-0.129-4.242-0.195-7.069-0.329
			C117.018,176.064,124.725,99.677,132.431,23.289z M153.167,22.352c-0.493,5.444-0.74,8.165-1.233,13.608
			c-2.319-2.723-3.475-4.079-5.777-6.784c0.246-2.618,0.367-3.927,0.613-6.545C149.328,22.517,150.608,22.461,153.167,22.352z"/>
		<path style="fill:#FFFFFF;" d="M188.674,24.151c1.926,2.135,2.738,4.824,2.508,8.027c-1.247,17.327-2.494,34.654-3.743,51.981
			c-2.542,0.037-3.812,0.056-6.354,0.094c1.296-17.293,2.592-34.587,3.889-51.881c0.092-1.229-0.381-2.443-1.091-3.153
			c-0.611-0.611-1.475-0.931-2.582-0.893c-1.106,0.038-2.232,0.323-2.954,1.082c-0.722,0.759-1.04,1.995-1.136,3.221
			c-5.527,70.224-11.038,140.449-16.559,210.673c-0.096,1.227,0.051,2.338,0.723,3.223c0.568,0.75,1.868,1.051,3.083,1.093
			c1.216,0.042,2.206-0.171,2.991-0.885c1.046-0.95,1.606-1.916,1.698-3.146c1.296-17.294,2.591-34.588,3.888-51.883
			c2.661,0.047,3.991,0.071,6.651,0.116c-1.249,17.328-2.496,34.656-3.744,51.984c-0.23,3.203-1.398,5.896-3.995,8.014
			c-2.324,1.896-5.11,3.027-8.036,2.92c-3.169-0.116-5.879-1.446-7.79-3.484c-2.02-2.155-2.766-5.016-2.506-8.197
			c5.722-70.07,11.442-140.14,17.164-210.209c0.26-3.181,1.367-5.904,3.532-8.183c2.166-2.279,4.668-3.354,7.536-3.459
			C184.496,21.108,186.841,22.12,188.674,24.151z"/>
		<path style="fill:#FFFFFF;" d="M222.009,19.902c2.472-0.07,3.708-0.104,6.179-0.171c-4.355,78.876-8.716,157.751-13.075,236.627
			c-2.731-0.073-4.096-0.11-6.827-0.187c2.217-38.177,4.434-76.354,6.652-114.531c-3.257-0.007-4.885-0.011-8.142-0.018
			c-2.349,38.101-4.696,76.202-7.045,114.303c-2.829-0.084-4.243-0.127-7.072-0.215c5.067-78.463,10.139-156.926,15.206-235.39
			c2.56-0.08,3.84-0.119,6.4-0.195c-2.353,38.102-4.696,76.204-7.046,114.305c3.247,0.001,4.87,0.003,8.117,0.004
			C217.573,96.258,219.788,58.08,222.009,19.902z"/>
		<path style="fill:#FFFFFF;" d="M319.134,18.184c2.561-0.019,3.841-0.028,6.401-0.043c-0.912,76.457-1.82,152.913-2.734,229.369
			c-4.621,4.518-6.941,6.773-11.603,11.275c-3.072-3.152-4.603-4.727-7.655-7.88c-3.175,3.097-4.766,4.642-7.96,7.73
			c-4.387-4.583-6.569-6.876-10.916-11.459c2.068-76.234,4.139-152.468,6.21-228.702c2.561-0.034,3.841-0.05,6.402-0.081
			c-1.832,75.197-3.654,150.394-5.489,225.591c1.605,1.83,2.409,2.745,4.02,4.575c1.791-1.795,2.686-2.693,4.471-4.491
			c1.573-75.253,3.151-150.507,4.725-225.761c2.561-0.026,3.841-0.038,6.401-0.061c-1.362,75.294-2.722,150.588-4.092,225.882
			c1.617,1.828,2.427,2.742,4.05,4.57c1.78-1.802,2.668-2.705,4.442-4.509C316.917,168.854,318.022,93.519,319.134,18.184z"/>
		<path style="fill:#FFFFFF;" d="M344.08,18.069c2.561-0.005,3.841-0.005,6.402-0.007c-0.082,80.043-0.167,160.087-0.243,240.131
			c-2.83-0.001-4.245-0.002-7.074-0.007C343.462,178.147,343.774,98.108,344.08,18.069z"/>
		<path style="fill:#FFFFFF;" d="M365.271,18.078c8.212,0.022,12.319,0.042,20.532,0.1c0.041,2.825,0.062,4.238,0.103,7.063
			c-2.923-0.02-4.384-0.028-7.308-0.043c0.87,77.724,1.747,155.448,2.623,233.172c-2.732,0.015-4.098,0.021-6.831,0.032
			c-0.673-77.744-1.333-155.488-1.994-233.231c-2.834-0.011-4.251-0.016-7.085-0.023C365.295,22.32,365.287,20.906,365.271,18.078z"
			/>
		<path style="fill:#FFFFFF;" d="M414.721,18.474c2.473,0.033,3.709,0.051,6.182,0.087c2.385,79.695,4.762,159.39,7.146,239.085
			c-2.732,0.04-4.098,0.06-6.83,0.096c-1.05-38.662-2.1-77.323-3.149-115.985c-3.258,0.003-4.888,0.005-8.146,0.008
			c0.922,38.694,1.835,77.389,2.76,116.083c-2.83,0.033-4.245,0.048-7.075,0.077c-1.686-79.872-3.342-159.745-5.016-239.618
			c2.561,0.026,3.841,0.041,6.401,0.07c0.916,38.695,1.846,77.39,2.756,116.085c3.248,0,4.874-0.001,8.121-0.002
			C416.821,95.798,415.771,57.136,414.721,18.474z"/>
		<path style="fill:#FFFFFF;" d="M504.66,31.884c2.211,32.78,4.425,65.56,6.633,98.34c0.1,1.482-0.131,2.758-0.643,4.202
			c-0.414,1.169-1.853,3.052-1.859,3.463c-0.009,0.566,1.75,2.599,2.341,3.703c0.639,1.194,1.113,2.716,1.213,4.198
			c2.211,32.779,4.422,65.559,6.633,98.338c0.217,3.212-0.569,5.975-2.858,8.261c-2.048,2.046-4.664,3.369-7.59,3.457
			c-4.486,0.135-6.729,0.2-11.216,0.325c-4.583-78.756-9.143-157.514-13.726-236.27c4.061,0.114,6.092,0.174,10.152,0.297
			c2.648,0.081,5.139,1.252,7.275,3.434C503.263,25.928,504.443,28.672,504.66,31.884z M498.449,31.708
			c-0.08-1.237-0.714-2.484-1.538-3.257c-0.71-0.667-1.612-1.034-2.719-1.065c-1.505-0.042-2.261-0.064-3.766-0.105
			c2.183,35.718,4.358,71.436,6.54,107.153c1.577-0.001,2.364-0.003,3.941-0.004c1.159,0,2.048-0.488,2.704-1.239
			c0.645-0.736,1.28-1.732,1.2-2.969C502.694,97.382,500.564,64.545,498.449,31.708z M505.818,145.813
			c-0.08-1.237-0.608-2.225-1.604-3.213c-0.745-0.741-1.692-0.988-2.855-0.985c-1.582,0.004-2.371,0.006-3.953,0.01
			c2.18,35.717,4.36,71.435,6.54,107.152c1.653-0.046,2.479-0.07,4.132-0.117c1.216-0.035,2.174-0.312,2.854-1.075
			c0.908-1.018,1.329-2.021,1.249-3.26C510.061,211.488,507.939,178.65,505.818,145.813z"/>
		<path style="fill:#FFFFFF;" d="M522.429,21.158c2.56,0.093,3.839,0.141,6.398,0.238c6.163,77.711,12.323,155.422,18.47,233.134
			c-2.828,0.106-4.239,0.16-7.067,0.262C534.275,176.916,528.358,99.036,522.429,21.158z"/>
		<path style="fill:#FFFFFF;" d="M568.969,34.151c3.163,32.202,6.324,64.405,9.49,96.607c0.143,1.449-0.115,3.03-0.523,4.106
			c-0.435,1.147-1.992,3-1.991,3.387c0.001,0.553,1.979,2.209,2.653,3.379c0.62,1.076,1.192,2.653,1.358,4.344
			c3.5,35.664,7.007,71.328,10.513,106.992c-2.828,0.13-4.242,0.195-7.07,0.322c-3.403-35.759-6.798-71.519-10.201-107.278
			c-0.138-1.453-0.703-2.514-1.463-3.144c-0.888-0.735-1.976-1.204-3.138-1.2c-1.581,0.005-2.373,0.007-3.954,0.013
			c3.414,37.327,6.812,74.656,10.222,111.984c-2.828,0.122-4.238,0.182-7.066,0.3c-6.832-77.273-13.634-154.55-20.438-231.826
			c4.06,0.17,6.087,0.257,10.146,0.437c2.868,0.126,5.387,1.205,7.586,3.47C567.291,28.307,568.66,31.011,568.969,34.151z
			 M567.966,134.873c1.159-0.001,2.162-0.484,2.898-1.214c0.629-0.623,0.999-1.695,0.884-2.906
			c-3.073-32.288-6.143-64.577-9.211-96.865c-0.139-1.453-0.675-2.53-1.405-3.193c-0.849-0.77-1.887-1.286-2.993-1.332
			c-1.505-0.062-2.255-0.092-3.76-0.153c3.21,35.223,6.427,70.445,9.646,105.667C565.601,134.876,566.39,134.875,567.966,134.873z"
			/>
		<path style="fill:#FFFFFF;" d="M607.979,35.912c8.022,67.916,16.049,135.83,24.062,203.747c0.364,3.083-0.297,5.756-2.482,8.007
			c-1.956,2.015-4.511,3.348-7.435,3.501c-4.483,0.234-6.728,0.349-11.212,0.573c-8.168-75.935-16.346-151.869-24.512-227.804
			c4.059,0.204,6.088,0.309,10.146,0.522c2.646,0.139,5.183,1.321,7.417,3.464C606.316,30.178,607.615,32.829,607.979,35.912z
			 M601.774,35.613c-0.137-1.189-0.821-2.394-1.685-3.159c-0.741-0.657-1.657-1.029-2.764-1.083
			c-1.504-0.074-2.256-0.11-3.761-0.183c7.884,71.089,15.771,142.178,23.646,213.269c1.652-0.08,2.479-0.121,4.131-0.202
			c1.215-0.06,2.159-0.348,2.806-1.098c0.862-1,1.238-1.974,1.102-3.165C617.432,171.864,609.586,103.74,601.774,35.613z"/>
		<path style="fill:#FFFFFF;" d="M659.521,134.772c0.181,1.301,0.269,1.951,0.449,3.251s0.271,1.952,0.451,3.252
			c0.025,0.186,0.04,0.278,0.065,0.464c4.466,32.208,8.932,64.417,13.395,96.625c0.387,2.787-0.474,5.413-2.376,7.639
			s-4.459,3.327-7.627,3.52s-5.976-0.583-8.438-2.568s-3.763-4.519-4.122-7.338c-2.101-16.609-4.231-33.215-6.344-49.823
			c2.755-0.081,4.132-0.123,6.886-0.206c2.164,16.549,4.337,33.098,6.495,49.647c0.153,1.171,0.534,2.189,1.34,2.755
			c0.951,0.668,2.098,1.06,3.312,0.99s2.246-0.592,3.001-1.35c0.637-0.639,0.995-1.702,0.838-2.867
			c-4.394-32.485-8.777-64.971-13.165-97.456c-5.949,0.029-8.924,0.043-14.874,0.071c-0.168-1.316-0.253-1.974-0.421-3.291
			c-0.168-1.316-0.248-1.973-0.416-3.289c-0.024-0.188-0.037-0.282-0.062-0.47c-4.139-32.511-8.282-65.021-12.422-97.532
			c-0.39-3.055,0.169-5.593,1.883-7.592c1.716-1.998,4.016-2.789,6.882-2.615s5.414,1.257,7.688,3.472
			c2.273,2.214,3.737,4.833,4.156,7.853c2.265,16.336,4.524,32.673,6.792,49.009c-2.63-0.07-3.945-0.105-6.575-0.173
			c-2.214-16.397-4.425-32.795-6.644-49.192c-0.188-1.399-0.764-2.444-1.517-3.095c-0.878-0.759-1.927-1.267-3.032-1.33
			s-2.049,0.35-2.719,1.006c-0.572,0.561-0.672,1.593-0.488,2.998c4.258,32.551,8.517,65.102,12.776,97.652
			C650.623,134.784,653.589,134.78,659.521,134.772z"/>
	</g>
</g>
<g>
	<path style="fill:#FFFFFF;" d="M299.321,270.545c0.437-0.624,1.185-1.123,2.339-1.123c2.261,0,3.166,1.824,3.166,4.117v0.374
		c0,2.292-0.904,4.117-3.166,4.117c-1.263,0-2.027-0.577-2.464-1.295l-0.156,1.123h-0.905l0.094-2.339v-10.137h1.092V270.545z
		 M299.321,275.769c0.327,0.546,0.967,1.279,2.089,1.279c1.56,0,2.292-1.217,2.292-3.135v-0.374c0-1.919-0.733-3.135-2.292-3.135
		c-1.123,0-1.762,0.732-2.089,1.278V275.769z"/>
	<path style="fill:#FFFFFF;" d="M311.484,269.594h1.169l-2.963,7.953l-1.169,3.431h-1.263l1.294-3.431l-2.963-7.953h1.169
		l2.354,6.752L311.484,269.594z"/>
	<path style="fill:#FFFFFF;" d="M322.666,277.859h-1.014l-3.54-10.215l0.062,2.714v7.501h-1.123v-12.164h1.575l3.54,10.23
		l3.54-10.23h1.575v12.164h-1.123v-7.501l0.047-2.714L322.666,277.859z"/>
	<path style="fill:#FFFFFF;" d="M334.423,276.705c-0.546,0.718-1.481,1.326-2.916,1.326c-1.513,0-2.386-0.936-2.386-2.262v-0.156
		c0-1.793,1.357-2.308,2.698-2.51l2.495-0.391v-0.218c0-1.419-0.452-2.152-1.918-2.152c-1.56,0-1.918,0.904-1.918,1.98h-1.045
		v-0.141c0-1.247,0.546-2.76,2.979-2.76c2.292,0,2.994,1.247,2.994,3.072v3.025l0.094,2.339h-0.905L334.423,276.705z
		 M334.314,275.769v-2.261l-2.401,0.39c-1.061,0.188-1.7,0.702-1.7,1.638v0.14c0,0.733,0.468,1.404,1.575,1.404
		C333.316,277.08,334.018,276.252,334.314,275.769z"/>
	<path style="fill:#FFFFFF;" d="M341.737,269.594v0.982h-2.636v4.85c0,1.31,0.546,1.622,1.591,1.622
		c0.343,0,0.764-0.078,0.889-0.141v0.951c-0.125,0.047-0.499,0.172-1.154,0.172c-1.403,0-2.417-0.671-2.417-2.464v-4.99h-1.31
		v-0.982h1.31v-2.34h1.091v2.34H341.737z"/>
	<path style="fill:#FFFFFF;" d="M347.975,269.594v0.982h-2.636v4.85c0,1.31,0.546,1.622,1.591,1.622
		c0.343,0,0.764-0.078,0.889-0.141v0.951c-0.125,0.047-0.499,0.172-1.154,0.172c-1.403,0-2.417-0.671-2.417-2.464v-4.99h-1.31
		v-0.982h1.31v-2.34h1.091v2.34H347.975z"/>
	<path style="fill:#FFFFFF;" d="M350.812,270.592c0.499-0.655,1.341-1.17,2.651-1.17c1.637,0,2.511,1.107,2.511,2.651v5.785h-1.092
		v-5.63c0-1.247-0.702-1.824-1.793-1.824c-1.294,0-1.934,0.732-2.276,1.278v6.176h-1.092v-12.476h1.092V270.592z"/>
	<path style="fill:#FFFFFF;" d="M358.797,274.178c0.046,1.81,0.811,2.933,2.464,2.933s2.339-1.014,2.339-1.903h1.045v0.062
		c0,1.279-1.061,2.761-3.384,2.761c-2.495,0-3.571-1.841-3.571-4.133v-0.343c0-2.293,1.076-4.133,3.493-4.133
		s3.462,1.84,3.462,4.133v0.623H358.797z M358.797,273.274h4.74c-0.062-1.793-0.795-2.932-2.37-2.932
		C359.607,270.342,358.843,271.481,358.797,273.274z"/>
	<path style="fill:#FFFFFF;" d="M368.918,277.859h-1.436l-1.777-8.265h1.092l1.435,7.126l1.918-7.126h1.325l1.919,7.126l1.435-7.126
		h1.092l-1.778,8.265h-1.45l-1.887-7.049L368.918,277.859z"/>
	<path style="fill:#FFFFFF;" d="M384.526,277.017h0.109c1.824,0,2.589-1.107,2.589-3.119h1.153v0.156
		c0,2.557-1.247,3.977-3.836,3.977c-2.791,0-4.133-1.731-4.133-5.941v-0.624c0-4.211,1.342-5.941,4.133-5.941
		c2.589,0,3.836,1.419,3.836,4.163v0.438h-1.153c0-2.511-0.765-3.587-2.589-3.587h-0.109c-2.027,0-2.963,1.466-2.963,4.928v0.624
		C381.563,275.551,382.483,277.017,384.526,277.017z"/>
	<path style="fill:#FFFFFF;" d="M389.922,273.914v-0.374c0-2.293,1.045-4.117,3.479-4.117c2.433,0,3.478,1.824,3.478,4.117v0.374
		c0,2.292-1.045,4.117-3.478,4.117C390.967,278.031,389.922,276.206,389.922,273.914z M395.771,273.914v-0.374
		c0-1.888-0.733-3.135-2.37-3.135c-1.638,0-2.371,1.247-2.371,3.135v0.374c0,1.887,0.733,3.135,2.371,3.135
		C395.037,277.048,395.771,275.8,395.771,273.914z"/>
	<path style="fill:#FFFFFF;" d="M403.832,277.859v-5.63c0-1.247-0.702-1.824-1.794-1.824c-1.294,0-1.934,0.732-2.276,1.278v6.176
		h-1.092v-5.926l-0.094-2.339h0.904l0.156,1.169c0.483-0.732,1.356-1.341,2.775-1.341c1.638,0,2.511,1.107,2.511,2.651v5.785
		H403.832z"/>
	<path style="fill:#FFFFFF;" d="M411.208,269.594v0.982h-2.636v4.85c0,1.31,0.546,1.622,1.591,1.622
		c0.343,0,0.765-0.078,0.889-0.141v0.951c-0.124,0.047-0.499,0.172-1.153,0.172c-1.404,0-2.418-0.671-2.418-2.464v-4.99h-1.31
		v-0.982h1.31v-2.34h1.092v2.34H411.208z"/>
	<path style="fill:#FFFFFF;" d="M412.688,273.914v-0.374c0-2.293,1.045-4.117,3.478-4.117c2.434,0,3.479,1.824,3.479,4.117v0.374
		c0,2.292-1.045,4.117-3.479,4.117C413.733,278.031,412.688,276.206,412.688,273.914z M418.537,273.914v-0.374
		c0-1.888-0.733-3.135-2.371-3.135c-1.637,0-2.37,1.247-2.37,3.135v0.374c0,1.887,0.733,3.135,2.37,3.135
		C417.804,277.048,418.537,275.8,418.537,273.914z"/>
</g>
<g style="display:none;">
	<g style="display:inline;">
		<path d="M79.89,36.81c-3.977,31.175-7.953,62.349-11.924,93.524c-0.18,1.41-0.645,2.608-1.436,3.994
			c-0.632,1.107-2.456,2.862-2.51,3.283c-0.063,0.483,1.26,2.483,1.639,3.528c0.404,1.115,0.6,2.59,0.42,4
			c-3.975,31.175-7.95,62.349-11.924,93.524c-0.39,3.055-1.691,5.603-4.395,7.561c-2.42,1.753-5.266,2.76-8.189,2.583
			c-4.482-0.271-6.723-0.408-11.205-0.688c10.208-73.629,20.416-147.258,30.62-220.888c4.056-0.255,6.084-0.38,10.141-0.626
			c2.646-0.161,4.94,0.745,6.66,2.625C79.599,31.211,80.28,33.755,79.89,36.81z M73.686,37.139c0.153-1.171-0.259-2.315-0.929-2.972
			c-0.573-0.561-1.424-0.848-2.53-0.786c-1.504,0.085-2.256,0.127-3.76,0.213c-4.537,33.573-9.069,67.146-13.605,100.72
			c1.575,0.001,2.364,0.002,3.939,0.004c1.159,0.001,2.123-0.443,2.935-1.167c0.809-0.721,1.603-1.639,1.756-2.81
			C65.552,99.274,69.621,68.207,73.686,37.139z M59.561,145.095c0.153-1.171-0.189-2.11-0.997-3.051
			c-0.605-0.706-1.504-0.944-2.667-0.949c-1.58-0.007-2.37-0.012-3.95-0.02c-4.535,33.574-9.07,67.147-13.605,100.721
			c1.651,0.095,2.477,0.144,4.128,0.238c1.215,0.069,2.219-0.11,3.04-0.772c1.094-0.881,1.701-1.791,1.854-2.962
			C51.427,207.23,55.494,176.163,59.561,145.095z"/>
		<path d="M99.789,24.954c6.88-0.375,10.321-0.557,17.202-0.907c-0.302,2.776-0.452,4.164-0.753,6.939
			c-4.336,0.206-6.505,0.311-10.841,0.525c-3.92,34.28-7.838,68.561-11.755,102.841c4.542,0.004,6.813,0.006,11.356,0.01
			c-0.302,2.776-0.454,4.164-0.755,6.939c-4.556-0.018-6.833-0.027-11.39-0.046c-3.921,34.28-7.839,68.561-11.755,102.841
			c4.762,0.238,7.143,0.354,11.905,0.581c-0.302,2.776-0.453,4.164-0.755,6.939c-7.603-0.384-11.404-0.582-19.006-0.994
			C82.094,175.401,90.938,100.177,99.789,24.954z"/>
		<path d="M132.431,23.289c6.228,7.223,12.455,14.445,18.687,21.664c-6.301,69.51-12.597,139.02-18.898,208.529
			c-2.828-0.121-4.241-0.183-7.068-0.308c6.402-68.283,12.811-136.564,19.207-204.848c-2.868-3.577-4.295-5.359-7.137-8.907
			c-6.944,71.121-13.897,142.24-20.846,213.36c-2.827-0.129-4.242-0.195-7.069-0.329C117.018,176.064,124.725,99.677,132.431,23.289
			z M153.167,22.352c-0.493,5.444-0.74,8.165-1.233,13.608c-2.319-2.723-3.475-4.079-5.777-6.784
			c0.246-2.618,0.367-3.927,0.613-6.545C149.328,22.517,150.608,22.461,153.167,22.352z"/>
		<path d="M188.674,24.151c1.926,2.135,2.738,4.824,2.508,8.027c-1.247,17.327-2.494,34.654-3.743,51.981
			c-2.542,0.037-3.812,0.056-6.354,0.094c1.296-17.293,2.592-34.587,3.889-51.881c0.092-1.229-0.381-2.443-1.091-3.153
			c-0.611-0.611-1.475-0.931-2.582-0.893c-1.106,0.038-2.232,0.323-2.954,1.082c-0.722,0.759-1.04,1.995-1.136,3.221
			c-5.527,70.224-11.038,140.449-16.559,210.673c-0.096,1.227,0.051,2.338,0.723,3.223c0.568,0.75,1.868,1.051,3.083,1.093
			c1.216,0.042,2.206-0.171,2.991-0.885c1.046-0.95,1.606-1.916,1.698-3.146c1.296-17.294,2.591-34.588,3.888-51.883
			c2.661,0.047,3.991,0.071,6.651,0.116c-1.249,17.328-2.496,34.656-3.744,51.984c-0.23,3.203-1.398,5.896-3.995,8.014
			c-2.324,1.896-5.11,3.027-8.036,2.92c-3.169-0.116-5.879-1.446-7.79-3.484c-2.02-2.155-2.766-5.016-2.506-8.197
			c5.722-70.07,11.442-140.14,17.164-210.209c0.26-3.181,1.367-5.904,3.532-8.183c2.166-2.279,4.668-3.354,7.536-3.459
			C184.496,21.108,186.841,22.12,188.674,24.151z"/>
		<path d="M222.009,19.902c2.472-0.07,3.708-0.104,6.179-0.171c-4.355,78.876-8.716,157.751-13.075,236.627
			c-2.731-0.073-4.096-0.11-6.827-0.187c2.217-38.177,4.434-76.354,6.652-114.531c-3.257-0.007-4.885-0.011-8.142-0.018
			c-2.349,38.101-4.696,76.202-7.045,114.303c-2.829-0.084-4.243-0.127-7.072-0.215c5.067-78.463,10.139-156.926,15.206-235.39
			c2.56-0.08,3.84-0.119,6.4-0.195c-2.353,38.102-4.696,76.204-7.046,114.305c3.247,0.001,4.87,0.003,8.117,0.004
			C217.573,96.258,219.788,58.08,222.009,19.902z"/>
		<path d="M319.134,18.184c2.561-0.019,3.841-0.028,6.401-0.043c-0.912,76.457-1.82,152.913-2.734,229.369
			c-4.621,4.518-6.941,6.773-11.603,11.275c-3.072-3.152-4.603-4.727-7.655-7.88c-3.175,3.097-4.766,4.642-7.96,7.73
			c-4.387-4.583-6.569-6.876-10.916-11.459c2.068-76.234,4.139-152.468,6.21-228.702c2.561-0.034,3.841-0.05,6.402-0.081
			c-1.832,75.197-3.654,150.394-5.489,225.591c1.605,1.83,2.409,2.745,4.02,4.575c1.791-1.795,2.686-2.693,4.471-4.491
			c1.573-75.253,3.151-150.507,4.725-225.761c2.561-0.026,3.841-0.038,6.401-0.061c-1.362,75.294-2.722,150.588-4.092,225.882
			c1.617,1.828,2.427,2.742,4.05,4.57c1.78-1.802,2.668-2.705,4.442-4.509C316.917,168.854,318.022,93.519,319.134,18.184z"/>
		<path d="M344.08,18.069c2.561-0.005,3.841-0.005,6.402-0.007c-0.082,80.043-0.167,160.087-0.243,240.131
			c-2.83-0.001-4.245-0.002-7.074-0.007C343.462,178.147,343.774,98.108,344.08,18.069z"/>
		<path d="M365.271,18.078c8.212,0.022,12.319,0.042,20.532,0.1c0.041,2.825,0.062,4.238,0.103,7.063
			c-2.923-0.02-4.384-0.028-7.308-0.043c0.87,77.724,1.747,155.448,2.623,233.172c-2.732,0.015-4.098,0.021-6.831,0.032
			c-0.673-77.744-1.333-155.488-1.994-233.231c-2.834-0.011-4.251-0.016-7.085-0.023C365.295,22.32,365.287,20.906,365.271,18.078z"
			/>
		<path d="M414.721,18.474c2.473,0.033,3.709,0.051,6.182,0.087c2.385,79.695,4.762,159.39,7.146,239.085
			c-2.732,0.04-4.098,0.06-6.83,0.096c-1.05-38.662-2.1-77.323-3.149-115.985c-3.258,0.003-4.888,0.005-8.146,0.008
			c0.922,38.694,1.835,77.389,2.76,116.083c-2.83,0.033-4.245,0.048-7.075,0.077c-1.686-79.872-3.342-159.745-5.016-239.618
			c2.561,0.026,3.841,0.041,6.401,0.07c0.916,38.695,1.846,77.39,2.756,116.085c3.248,0,4.874-0.001,8.121-0.002
			C416.821,95.798,415.771,57.136,414.721,18.474z"/>
		<path d="M504.66,31.884c2.211,32.78,4.425,65.56,6.633,98.34c0.1,1.482-0.131,2.758-0.643,4.202
			c-0.414,1.169-1.853,3.052-1.859,3.463c-0.009,0.566,1.75,2.599,2.341,3.703c0.639,1.194,1.113,2.716,1.213,4.198
			c2.211,32.779,4.422,65.559,6.633,98.338c0.217,3.212-0.569,5.975-2.858,8.261c-2.048,2.046-4.664,3.369-7.59,3.457
			c-4.486,0.135-6.729,0.2-11.216,0.325c-4.583-78.756-9.143-157.514-13.726-236.27c4.061,0.114,6.092,0.174,10.152,0.297
			c2.648,0.081,5.139,1.252,7.275,3.434C503.263,25.928,504.443,28.672,504.66,31.884z M498.449,31.708
			c-0.08-1.237-0.714-2.484-1.538-3.257c-0.71-0.667-1.612-1.034-2.719-1.065c-1.505-0.042-2.261-0.064-3.766-0.105
			c2.183,35.718,4.358,71.436,6.54,107.153c1.577-0.001,2.364-0.003,3.941-0.004c1.159,0,2.048-0.488,2.704-1.239
			c0.645-0.736,1.28-1.732,1.2-2.969C502.694,97.382,500.564,64.545,498.449,31.708z M505.818,145.813
			c-0.08-1.237-0.608-2.225-1.604-3.213c-0.745-0.741-1.692-0.988-2.855-0.985c-1.582,0.004-2.371,0.006-3.953,0.01
			c2.18,35.717,4.36,71.435,6.54,107.152c1.653-0.046,2.479-0.07,4.132-0.117c1.216-0.035,2.174-0.312,2.854-1.075
			c0.908-1.018,1.329-2.021,1.249-3.26C510.061,211.488,507.939,178.65,505.818,145.813z"/>
		<path d="M522.429,21.158c2.56,0.093,3.839,0.141,6.398,0.238c6.163,77.711,12.323,155.422,18.47,233.134
			c-2.828,0.106-4.239,0.16-7.067,0.262C534.275,176.916,528.358,99.036,522.429,21.158z"/>
		<path d="M568.969,34.151c3.163,32.202,6.324,64.405,9.49,96.607c0.143,1.449-0.115,3.03-0.523,4.106
			c-0.435,1.147-1.992,3-1.991,3.387c0.001,0.553,1.979,2.209,2.653,3.379c0.62,1.076,1.192,2.653,1.358,4.344
			c3.5,35.664,7.007,71.328,10.513,106.992c-2.828,0.13-4.242,0.195-7.07,0.322c-3.403-35.759-6.798-71.519-10.201-107.278
			c-0.138-1.453-0.703-2.514-1.463-3.144c-0.888-0.735-1.976-1.204-3.138-1.2c-1.581,0.005-2.373,0.007-3.954,0.013
			c3.414,37.327,6.812,74.656,10.222,111.984c-2.828,0.122-4.238,0.182-7.066,0.3c-6.832-77.273-13.634-154.55-20.438-231.826
			c4.06,0.17,6.087,0.257,10.146,0.437c2.868,0.126,5.387,1.205,7.586,3.47C567.291,28.307,568.66,31.011,568.969,34.151z
			 M567.966,134.873c1.159-0.001,2.162-0.484,2.898-1.214c0.629-0.623,0.999-1.695,0.884-2.906
			c-3.073-32.288-6.143-64.577-9.211-96.865c-0.139-1.453-0.675-2.53-1.405-3.193c-0.849-0.77-1.887-1.286-2.993-1.332
			c-1.505-0.062-2.255-0.092-3.76-0.153c3.21,35.223,6.427,70.445,9.646,105.667C565.601,134.876,566.39,134.875,567.966,134.873z"
			/>
		<path d="M607.979,35.912c8.022,67.916,16.049,135.83,24.062,203.747c0.364,3.083-0.297,5.756-2.482,8.007
			c-1.956,2.015-4.511,3.348-7.435,3.501c-4.483,0.234-6.728,0.349-11.212,0.573c-8.168-75.935-16.346-151.869-24.512-227.804
			c4.059,0.204,6.088,0.309,10.146,0.522c2.646,0.139,5.183,1.321,7.417,3.464C606.316,30.178,607.615,32.829,607.979,35.912z
			 M601.774,35.613c-0.137-1.189-0.821-2.394-1.685-3.159c-0.741-0.657-1.657-1.029-2.764-1.083
			c-1.504-0.074-2.256-0.11-3.761-0.183c7.884,71.089,15.771,142.178,23.646,213.269c1.652-0.08,2.479-0.121,4.131-0.202
			c1.215-0.06,2.159-0.348,2.806-1.098c0.862-1,1.238-1.974,1.102-3.165C617.432,171.864,609.586,103.74,601.774,35.613z"/>
		<path d="M659.521,134.772c0.181,1.301,0.269,1.951,0.449,3.251s0.271,1.952,0.451,3.252c0.025,0.186,0.04,0.278,0.065,0.464
			c4.466,32.208,8.932,64.417,13.395,96.625c0.387,2.787-0.474,5.413-2.376,7.639s-4.459,3.327-7.627,3.52s-5.976-0.583-8.438-2.568
			s-3.763-4.519-4.122-7.338c-2.101-16.609-4.231-33.215-6.344-49.823c2.755-0.081,4.132-0.123,6.886-0.206
			c2.164,16.549,4.337,33.098,6.495,49.647c0.153,1.171,0.534,2.189,1.34,2.755c0.951,0.668,2.098,1.06,3.312,0.99
			s2.246-0.592,3.001-1.35c0.637-0.639,0.995-1.702,0.838-2.867c-4.394-32.485-8.777-64.971-13.165-97.456
			c-5.949,0.029-8.924,0.043-14.874,0.071c-0.168-1.316-0.253-1.974-0.421-3.291c-0.168-1.316-0.248-1.973-0.416-3.289
			c-0.024-0.188-0.037-0.282-0.062-0.47c-4.139-32.511-8.282-65.021-12.422-97.532c-0.39-3.055,0.169-5.593,1.883-7.592
			c1.716-1.998,4.016-2.789,6.882-2.615s5.414,1.257,7.688,3.472c2.273,2.214,3.737,4.833,4.156,7.853
			c2.265,16.336,4.524,32.673,6.792,49.009c-2.63-0.07-3.945-0.105-6.575-0.173c-2.214-16.397-4.425-32.795-6.644-49.192
			c-0.188-1.399-0.764-2.444-1.517-3.095c-0.878-0.759-1.927-1.267-3.032-1.33s-2.049,0.35-2.719,1.006
			c-0.572,0.561-0.672,1.593-0.488,2.998c4.258,32.551,8.517,65.102,12.776,97.652C650.623,134.784,653.589,134.78,659.521,134.772z
			"/>
	</g>
</g>
</svg>
