<?xml version="1.0" encoding="utf-8"?>
<!-- Generator: Adobe Illustrator 16.0.4, SVG Export Plug-In . SVG Version: 6.00 Build 0)  -->
<!DOCTYPE svg PUBLIC "-//W3C//DTD SVG 1.1//EN" "http://www.w3.org/Graphics/SVG/1.1/DTD/svg11.dtd">
<svg version="1.1" id="Layer_1" xmlns="http://www.w3.org/2000/svg" xmlns:xlink="http://www.w3.org/1999/xlink" x="0px" y="0px"
	 width="792px" height="612px" viewBox="0 0 792 612" enable-background="new 0 0 792 612" xml:space="preserve">
<g id="M">
	<polygon fill="#FFFFFF" points="649.156,218.662 637.926,218.662 507.902,218.664 406.769,394.037 447.76,464.918 578.525,238.16 
		721.144,485.193 779.5,485.193 779.5,444.432 	"/>
	<path fill="#FFFFFF" d="M394.048,416.095L239.741,149.449c-6.34-10.954-18.035-17.698-30.691-17.698c-0.005,0-0.013,0-0.018,0
		c-12.662,0.006-24.359,6.764-30.69,17.729l-10.977,19.013l40.944,70.918l0.777-1.345l143.012,247.125l72.009,0.001h11.961
		l0.156-0.271l-40.991-70.88L394.048,416.095z"/>
	<path fill="#FFFFFF" d="M609.217,149.481c-6.335-10.972-18.04-17.73-30.709-17.73c-0.002,0-0.006,0-0.009,0
		c-12.672,0.003-24.378,6.768-30.709,17.745l-28.354,49.168l118.175-0.002L609.217,149.481z"/>
	<polygon fill="#FFFFFF" points="155.817,188.494 13.088,435.707 12.501,485.19 66.408,485.19 196.762,259.412 	"/>
</g>
<polygon id="C" fill="#FFFFFF" points="596.819,127.745 143.841,127.751 350.21,485.191 436.381,485.192 270.679,198.669 
	637.925,198.662 "/>
</svg>
